HIERARCHY
ROOT Hips
{
	OFFSET -3.958830 18.904000 13.208200
	CHANNELS 6 Xposition Yposition Zposition Zrotation Yrotation Xrotation 
	JOINT LHipJoint
	{
		OFFSET 0.000000 0.000000 0.000000
		CHANNELS 3 Zrotation Yrotation Xrotation
		JOINT LeftUpLeg
		{
			OFFSET 1.800000 -1.400000 0.085000
			CHANNELS 3 Zrotation Yrotation Xrotation
			JOINT LeftLeg
			{
				OFFSET 2.215000 -6.000000 0.000000
				CHANNELS 3 Zrotation Yrotation Xrotation
				JOINT LeftFoot
				{
					OFFSET 2.500000 -6.900000 0.000000
					CHANNELS 3 Zrotation Yrotation Xrotation
					JOINT LeftToeBase
					{
						OFFSET 0.200000 -0.500000 1.950000
						CHANNELS 3 Zrotation Yrotation Xrotation
						End Site
						{
							OFFSET 0.000000 0.000000 0.000000
						}
					}
				}
			}
		}
	}
	JOINT RHipJoint
	{
		OFFSET 0.000000 0.000000 0.000000
		CHANNELS 3 Zrotation Yrotation Xrotation
		JOINT RightUpLeg
		{
			OFFSET -1.800000 -1.400000 0.085000
			CHANNELS 3 Zrotation Yrotation Xrotation
			JOINT RightLeg
			{
				OFFSET -2.215000 -6.000000 0.000000
				CHANNELS 3 Zrotation Yrotation Xrotation
				JOINT RightFoot
				{
					OFFSET -2.500000 -6.900000 0.000000
					CHANNELS 3 Zrotation Yrotation Xrotation
					JOINT RightToeBase
					{
						OFFSET -0.200000 -0.500000 1.950000
						CHANNELS 3 Zrotation Yrotation Xrotation
						End Site
						{
							OFFSET 0.000000 0.000000 0.000000
						}
					}
				}
			}
		}
	}
	JOINT LowerBack
	{
		OFFSET 0.000000 0.000000 0.000000
		CHANNELS 3 Zrotation Yrotation Xrotation
		JOINT Spine
		{
			OFFSET -0.087000 1.940000 -0.288900
			CHANNELS 3 Zrotation Yrotation Xrotation
			JOINT Spine1
			{
				OFFSET 0.000000 1.950000 0.060000
				CHANNELS 3 Zrotation Yrotation Xrotation
				JOINT Neck
				{
					OFFSET 0.000000 0.000000 0.000000
					CHANNELS 3 Zrotation Yrotation Xrotation
					JOINT Neck1
					{
						OFFSET 0.000000 1.600000 0.340000
						CHANNELS 3 Zrotation Yrotation Xrotation
						JOINT Head
						{
							OFFSET 0.000000 1.667000 -0.240000
							CHANNELS 3 Zrotation Yrotation Xrotation
							End Site
							{
								OFFSET 0.000000 0.000000 0.000000
							}
						}
					}
				}
				JOINT LeftShoulder
				{
					OFFSET 0.000000 0.000000 0.000000
					CHANNELS 3 Zrotation Yrotation Xrotation
					JOINT LeftArm
					{
						OFFSET 2.700000 1.550000 -0.730000
						CHANNELS 3 Zrotation Yrotation Xrotation
						JOINT LeftForeArm
						{
							OFFSET 5.450000 0.000000 0.000000
							CHANNELS 3 Zrotation Yrotation Xrotation
							JOINT LeftHand
							{
								OFFSET 3.450000 0.000000 0.000000
								CHANNELS 3 Zrotation Yrotation Xrotation
								JOINT LeftHandIndex1
								{
									OFFSET 0.750000 0.000000 0.000000
									CHANNELS 3 Zrotation Yrotation Xrotation
									End Site
									{
										OFFSET 0.000000 0.000000 0.000000
									}
								}
							}
						}
					}
				}
				JOINT RightShoulder
				{
					OFFSET 0.000000 0.000000 0.000000
					CHANNELS 3 Zrotation Yrotation Xrotation
					JOINT RightArm
					{
						OFFSET -2.700000 1.550000 -0.730000
						CHANNELS 3 Zrotation Yrotation Xrotation
						JOINT RightForeArm
						{
							OFFSET -5.450000 0.000000 0.000000
							CHANNELS 3 Zrotation Yrotation Xrotation
							JOINT RightHand
							{
								OFFSET -3.450000 0.000000 0.000000
								CHANNELS 3 Zrotation Yrotation Xrotation
								JOINT RightHandIndex1
								{
									OFFSET -0.750000 0.000000 0.000000
									CHANNELS 3 Zrotation Yrotation Xrotation
									End Site
									{
										OFFSET 0.000000 0.000000 0.000000
									}
								}
							}
						}
					}
				}
			}
		}
	}
}
MOTION
Frames: 6
Frame Time: 0.016667
-1.708480 16.239760 -0.508200 -14.647316 6.041460 -15.166834 -16.014956 13.240923 3.227199 32.653499 0.098899 -27.685528 13.684891 7.211684 49.980413 -0.456782 9.476176 0.778775 0.665420 0.114850 0.986980 17.698083 -9.450008 2.478453 -16.924774 4.230991 -10.252409 24.878410 -19.839885 39.779460 -1.585008 -8.805399 1.265257 0.194740 -0.140370 0.299500 -1.605145 -3.616389 -7.700257 -23.871847 13.743774 18.629005 13.431942 10.398718 17.099249 -2.912399 6.912384 -16.172351 15.578049 -3.621633 71.776472 -0.400810 14.158590 -15.591350 -9.843169 -29.558369 7.170253 -18.634069 -20.819958 -1.826422 11.054704 -21.063350 -3.477606 -3.744292 2.295141 1.226190 -0.027120 0.313070 -0.130760 16.876302 30.195789 10.337734 52.874684 21.878821 -3.785054 8.291657 24.709750 -0.082534 1.748255 -1.085453 -0.416490 0.245910 0.034900 -0.718930 
-1.792390 16.343190 -0.458430 -14.227711 5.587002 -14.825347 -15.910423 13.416370 2.855094 31.808479 0.529792 -24.889171 13.735134 6.547824 45.392536 -0.545140 8.818405 1.059921 0.572270 0.002370 0.889080 17.742993 -9.767688 2.495867 -16.374303 3.793864 -9.021814 24.459619 -18.779167 37.529666 -1.428200 -8.486849 1.400183 0.143740 -0.028920 0.293800 -1.819154 -3.249716 -7.469048 -24.183013 12.434514 16.434508 9.707910 10.617879 17.574991 -2.065477 7.312692 -15.503484 16.212373 -2.949900 68.195907 0.278950 13.376640 -12.550910 -7.314063 -28.532460 7.415785 -19.298481 -20.409993 -1.886080 11.779215 -21.686778 -3.696266 -3.799671 2.326439 1.149900 0.043630 0.212730 -0.119560 12.426484 28.829031 10.239488 55.066797 22.537290 -3.943077 14.225161 29.331833 0.670202 1.776103 -1.124930 -0.445190 0.249840 0.080280 -0.683020 
-1.876500 16.452880 -0.417530 -13.705238 4.891589 -14.411256 -15.806926 13.520948 2.554001 31.603361 1.125782 -21.855658 12.703142 6.521299 40.433232 -0.635626 8.201049 1.339264 0.461000 -0.134850 0.791050 17.798087 -10.051398 2.512293 -15.846014 3.396413 -8.083880 23.898893 -17.740825 35.428369 -1.270565 -8.168654 1.544553 0.083930 0.078540 0.267470 -2.041391 -2.859608 -7.290065 -23.784737 10.960202 14.759484 4.499828 10.965369 17.791169 -0.576512 7.611371 -14.997108 16.319830 -1.866662 64.657881 0.454930 12.608370 -9.902530 -4.682512 -26.676620 7.257687 -19.838886 -20.028292 -2.126716 12.752723 -22.634103 -3.995724 -3.850613 2.325739 1.089420 0.105270 0.110320 -0.113850 6.557826 26.333175 10.414974 57.518782 22.767581 -4.981410 23.976389 37.216678 2.722607 1.814530 -1.201029 -0.496260 0.272500 0.131470 -0.658400 
-1.960300 16.557480 -0.383750 -12.838434 3.658355 -13.378944 -15.723613 13.566873 2.360499 31.515100 1.759165 -19.263155 11.028675 6.885752 36.003035 -0.652631 7.710713 1.586886 0.371830 -0.249950 0.691300 17.843102 -10.238011 2.552014 -15.702889 3.293625 -8.233260 23.458315 -16.845689 33.830679 -1.139078 -7.897533 1.668811 0.016010 0.176190 0.255820 -2.212667 -2.558669 -7.203241 -23.096005 9.570346 12.789831 -0.275924 10.936686 17.743149 0.756089 6.756164 -15.141859 13.664079 0.271761 62.257871 0.832190 11.395060 -6.907350 -2.452828 -24.783383 7.266756 -21.261577 -18.817208 -2.391179 13.404707 -23.879945 -4.246664 -3.858936 2.360706 1.027130 0.147240 0.029440 -0.084820 1.514132 24.547960 10.980552 58.181967 22.442502 -5.237957 34.156368 44.696456 6.430702 1.852042 -1.322235 -0.514550 0.279700 0.160070 -0.610770 
-2.041450 16.661780 -0.344420 -11.841778 2.377097 -11.850047 -15.628703 13.561783 2.244761 31.266953 2.167713 -17.057292 9.112412 7.214974 31.797013 -0.666662 7.273841 1.814594 0.276000 -0.366680 0.568660 17.893773 -10.409798 2.610398 -15.711453 3.184334 -8.812252 23.180527 -15.950018 31.952940 -0.999231 -7.580597 1.815135 -0.053050 0.283010 0.228930 -2.402678 -2.241164 -7.180660 -21.769088 8.098381 10.592201 -5.451969 10.684495 17.261422 1.820495 5.310774 -15.774222 9.825811 2.765841 60.745607 2.362430 9.799420 -3.750790 -0.517120 -23.023224 7.432935 -22.439595 -16.774771 -2.559565 13.038750 -25.227234 -4.189200 -3.854672 2.376448 0.983050 0.178860 -0.052610 -0.054190 -2.658437 23.372375 11.793466 58.064055 21.440819 -4.672249 44.052297 51.562068 11.709885 1.870428 -1.416848 -0.543520 0.305200 0.201460 -0.559260 
-2.116960 16.784260 -0.308160 -10.899423 0.815391 -10.942344 -15.551246 13.609814 2.171221 31.137255 2.487896 -14.422011 7.426026 7.345497 27.839084 -0.644045 6.898535 2.007447 0.234090 -0.397720 0.479810 17.925216 -10.541775 2.624653 -15.555224 2.993813 -8.732023 22.479390 -14.864976 29.903927 -0.887696 -7.196656 1.976125 -0.088140 0.345890 0.212970 -2.534592 -2.113122 -7.147446 -20.320822 6.799188 8.854810 -9.985769 10.452899 17.089738 2.748579 3.631616 -16.488306 5.652990 5.416245 59.545396 4.007960 8.531290 -2.271310 0.844021 -21.369049 7.581654 -23.536085 -14.954351 -2.289156 12.113293 -24.863832 -3.805012 -3.845248 2.395649 0.948030 0.184410 -0.084450 -0.019590 -5.965224 22.776238 12.670196 55.357701 19.968019 -3.728218 55.904090 59.455628 20.254565 1.925359 -1.469562 -0.535820 0.324090 0.212280 -0.501690 
